# xmcd
#
# Track frame offsets: 
#        150
#        28760
#        62970
#        94470
#        122417
#        150037
#        190947
#        226720
#        245715
#        261002
#        276642
#        295000
#        317340
#
# Disc length: 4441 seconds
#
# Revision: 3
# Processed by: cddbd v1.5.2PL0 Copyright (c) Steve Scherf et al.
# Submitted via: ExactAudioCopy v1.1
#
DISCID=b011570d
DTITLE=Stan Getz - West Coast Jazz [Verve Master Edition]
DYEAR=1955
DGENRE=Jazz
TTITLE0=Stan Getz Quintet - East Of The Sun (West Of The Moon) (mono)
TTITLE1=Stan Getz Quintet - Four (mono)
TTITLE2=Stan Getz Quintet - Suddenly It's Spring (mono)
TTITLE3=Stan Getz Quintet - A Night In Tunisia (mono)
TTITLE4=Stan Getz Quintet - Summertime (mono)
TTITLE5=Stan Getz Quintet - S-H-I-N-E (mono)
TTITLE6=Stan Getz Quintet - Split Kick (mono)
TTITLE7=Stan Getz Quartet - Of Thee I Sing (master - take 5) (mono)
TTITLE8=Stan Getz Quartet - A Handful Of Stars (mono)
TTITLE9=Stan Getz Quartet - Love Is Here To Stay (master - take 4) (mo
TTITLE9=no)
TTITLE10=Stan Getz Quartet - Serenade In Blue (mono)
TTITLE11=Stan Getz Quartet - Of Thee I Sing (alt - take 7) (mono)
TTITLE12=Stan Getz Quartet - Love Is Here To Stay (alt - take 3) (mono
TTITLE12=)
EXTD=
EXTT0=
EXTT1=
EXTT2=
EXTT3=
EXTT4=
EXTT5=
EXTT6=
EXTT7=
EXTT8=
EXTT9=
EXTT10=
EXTT11=
EXTT12=
PLAYORDER=
